<svg xmlns="http://www.w3.org/2000/svg" width="256" height="256" viewBox="0 0 100 100"><rect width="100" height="100" rx="35" fill="#030305"></rect><path fill="#e9e9ea" d="M89.48 50.06L89.48 50.06Q89.48 54.31 88.02 57.62Q86.57 60.92 83.99 63.16Q81.42 65.40 78 66.58Q74.58 67.75 70.66 67.75L70.66 67.75Q64.50 67.75 59.35 65.34Q54.20 62.94 49.94 57.56L49.94 57.56Q41.77 67.75 29.34 67.75L29.34 67.75Q25.42 67.75 21.94 66.58Q18.47 65.40 15.95 63.16Q13.43 60.92 11.98 57.62Q10.52 54.31 10.52 50.06L10.52 50.06Q10.52 45.80 11.98 42.50Q13.43 39.19 16.01 36.90Q18.58 34.60 22.06 33.42Q25.53 32.25 29.45 32.25L29.45 32.25Q35.61 32.25 40.65 35.10Q45.69 37.96 49.94 43.00L49.94 43.00Q58.46 32.25 70.33 32.25L70.33 32.25Q74.58 32.25 78.11 33.54Q81.64 34.82 84.16 37.12Q86.68 39.42 88.08 42.72Q89.48 46.02 89.48 50.06ZM69.10 41.43L69.10 41.43Q65.06 41.43 61.82 43.90Q58.57 46.36 55.77 50.17L55.77 50.17Q58.34 53.75 61.76 56.16Q65.18 58.57 69.43 58.57L69.43 58.57Q73.80 58.57 76.21 56.16Q78.62 53.75 78.62 50.17L78.62 50.17Q78.62 46.25 76.04 43.84Q73.46 41.43 69.10 41.43ZM30.46 58.57L30.46 58.57Q34.49 58.57 37.90 56.38Q41.32 54.20 44.01 50.17L44.01 50.17Q41.10 46.25 37.79 43.84Q34.49 41.43 30.57 41.43L30.57 41.43Q26.31 41.43 23.85 43.73Q21.38 46.02 21.38 50.06L21.38 50.06Q21.38 54.09 23.90 56.33Q26.42 58.57 30.46 58.57Z"></path></svg>